<svg width="18" height="16" viewBox="0 0 18 16" fill="none" xmlns="http://www.w3.org/2000/svg">
<path d="M10.5 5.375C10.5 5.58211 10.3321 5.75 10.125 5.75C9.9179 5.75 9.75 5.58211 9.75 5.375M10.5 5.375C10.5 5.16789 10.3321 5 10.125 5C9.9179 5 9.75 5.16789 9.75 5.375M10.5 5.375L9.75 5.375M14.25 10.2501V10.2501C14.7614 10.6336 15.0171 10.8254 15.2122 10.9003C16.0352 11.2164 16.952 10.758 17.1929 9.90997C17.25 9.70899 17.25 9.38935 17.25 8.75006L17.25 7.25004C17.25 6.61077 17.25 6.29113 17.1929 6.09017C16.952 5.24209 16.0351 4.78367 15.2121 5.0998C15.0171 5.17471 14.7614 5.3665 14.25 5.75007V5.75007L14.25 10.2501ZM7.5 14.75V14.75C9.12773 14.75 9.94159 14.75 10.6072 14.5623C12.2815 14.0901 13.5901 12.7815 14.0623 11.1072C14.25 10.4416 14.25 9.62772 14.25 8V8C14.25 6.37228 14.25 5.55842 14.0623 4.8928C13.5901 3.21847 12.2815 1.90993 10.6072 1.43772C9.94159 1.25 9.12773 1.25 7.5 1.25V1.25C5.87228 1.25 5.05842 1.25 4.3928 1.43772C2.71847 1.90993 1.40993 3.21847 0.937724 4.8928C0.75 5.55842 0.75 6.37228 0.75 8V8C0.75 9.62772 0.75 10.4416 0.937724 11.1072C1.40993 12.7815 2.71847 14.0901 4.3928 14.5623C5.05842 14.75 5.87228 14.75 7.5 14.75Z" stroke="black" stroke-opacity="0.63" stroke-width="1.5" stroke-linecap="round" stroke-linejoin="round"/>
</svg>
