<svg width="14" height="12" viewBox="0 0 14 12" fill="none" xmlns="http://www.w3.org/2000/svg">
<path d="M5.83335 3.66666V6.72916C5.83335 8.10623 5.185 9.40292 4.08335 10.2292V10.2292L3.50002 10.6667M12.8334 3.66666V6.72916C12.8334 8.10623 12.185 9.40292 11.0834 10.2292V10.2292L10.5 10.6667M10.5 6V6C10.8096 6 10.9644 6 11.0944 5.98288C11.9919 5.86473 12.6981 5.15851 12.8162 4.26105C12.8334 4.13108 12.8334 3.97628 12.8334 3.66666V3.66666C12.8334 3.35705 12.8334 3.20224 12.8162 3.07228C12.6981 2.17481 11.9919 1.46859 11.0944 1.35044C10.9644 1.33333 10.8096 1.33333 10.5 1.33333V1.33333C10.1904 1.33333 10.0356 1.33333 9.90563 1.35044C9.00817 1.46859 8.30195 2.17481 8.1838 3.07228C8.16669 3.20224 8.16669 3.35705 8.16669 3.66666V3.66666C8.16669 3.97628 8.16669 4.13108 8.1838 4.26105C8.30195 5.15851 9.00817 5.86473 9.90563 5.98288C10.0356 6 10.1904 6 10.5 6ZM3.50002 6V6C3.80963 6 3.96444 6 4.09441 5.98288C4.99187 5.86473 5.69809 5.15851 5.81624 4.26105C5.83335 4.13108 5.83335 3.97628 5.83335 3.66666V3.66666C5.83335 3.35705 5.83335 3.20224 5.81624 3.07228C5.69809 2.17481 4.99187 1.46859 4.09441 1.35044C3.96444 1.33333 3.80963 1.33333 3.50002 1.33333V1.33333C3.19041 1.33333 3.0356 1.33333 2.90563 1.35044C2.00817 1.46859 1.30195 2.17481 1.1838 3.07228C1.16669 3.20224 1.16669 3.35705 1.16669 3.66666V3.66666C1.16669 3.97628 1.16669 4.13108 1.1838 4.26105C1.30195 5.15851 2.00817 5.86473 2.90563 5.98288C3.0356 6 3.19041 6 3.50002 6Z" stroke="black" stroke-opacity="0.54" stroke-width="1.5" stroke-linecap="round" stroke-linejoin="round"/>
</svg>
