<svg width="23" height="24" viewBox="0 0 23 24" fill="none" xmlns="http://www.w3.org/2000/svg">
<path d="M5.55196 11.25C5.22572 11.25 5.0626 11.25 4.91568 11.2036C4.78564 11.1626 4.66538 11.0954 4.56227 11.0061C4.44577 10.9053 4.36028 10.7664 4.1893 10.4886L3.33542 9.10099C1.1403 5.53393 0.0427427 3.7504 0.269835 2.75441C0.465856 1.89469 1.10028 1.20182 1.93944 0.930999C2.91161 0.617244 4.78471 1.55379 8.5309 3.42689L18.5217 8.42228C20.8247 9.5738 21.9762 10.1496 22.3458 10.9287C22.6673 11.6067 22.6673 12.3933 22.3458 13.0713C21.9762 13.8504 20.8247 14.4262 18.5217 15.5777L8.5309 20.5731C4.78471 22.4462 2.91161 23.3827 1.93944 23.069C1.10028 22.7982 0.465856 22.1053 0.269835 21.2456C0.0427432 20.2496 1.1403 18.466 3.33542 14.899L4.18929 13.5114C4.36027 13.2336 4.44576 13.0947 4.56226 12.9939C4.66537 12.9046 4.78563 12.8374 4.91566 12.7964C5.06259 12.75 5.22571 12.75 5.55194 12.75L10.25 12.75C10.6642 12.75 11 12.4142 11 12C11 11.5858 10.6642 11.25 10.25 11.25L5.55196 11.25Z" fill="#5057EA"/>
</svg>
