<svg width="16" height="16" viewBox="0 0 16 16" fill="none" xmlns="http://www.w3.org/2000/svg">
<path d="M6.25 9.75L6.53457 10.4899C7.5894 13.2326 8.11682 14.6039 8.82503 14.9489C9.43757 15.2472 10.1598 15.2132 10.7416 14.8586C11.4143 14.4486 11.8104 13.0338 12.6028 10.2041L13.716 6.22824C14.2177 4.43672 14.4685 3.54096 14.2357 2.92628C14.0327 2.39035 13.6096 1.96724 13.0737 1.76427C12.459 1.53147 11.5633 1.78228 9.77175 2.28391L5.79584 3.39716C2.96617 4.18947 1.55133 4.58563 1.14136 5.25828C0.786781 5.84005 0.75275 6.56231 1.05106 7.17484C1.39597 7.88306 2.76729 8.41049 5.50993 9.46536L6.25 9.75ZM6.25 9.75L8.125 7.875" stroke="#2F384C" stroke-width="1.5" stroke-linecap="round" stroke-linejoin="round"/>
</svg>
