<svg width="14" height="12" viewBox="0 0 14 12" fill="none" xmlns="http://www.w3.org/2000/svg">
<path d="M5.2501 10.6668L12.8334 10.6668M5.2501 6.00011L12.8334 6.00011M5.2501 1.33344L12.8334 1.33344M2.04177 1.33345C2.04177 1.49453 1.91118 1.62511 1.7501 1.62511C1.58902 1.62511 1.45844 1.49453 1.45844 1.33345M2.04177 1.33345C2.04177 1.17236 1.91118 1.04178 1.7501 1.04178C1.58902 1.04178 1.45844 1.17236 1.45844 1.33345M2.04177 1.33345L1.45844 1.33345M2.04177 6.00011C2.04177 6.16119 1.91118 6.29178 1.7501 6.29178C1.58902 6.29178 1.45844 6.16119 1.45844 6.00011M2.04177 6.00011C2.04177 5.83903 1.91118 5.70844 1.7501 5.70844C1.58902 5.70844 1.45844 5.83903 1.45844 6.00011M2.04177 6.00011L1.45844 6.00011M2.04177 10.6668C2.04177 10.8279 1.91118 10.9584 1.7501 10.9584C1.58902 10.9584 1.45844 10.8279 1.45844 10.6668M2.04177 10.6668C2.04177 10.5057 1.91118 10.3751 1.7501 10.3751C1.58902 10.3751 1.45844 10.5057 1.45844 10.6668M2.04177 10.6668L1.45844 10.6668" stroke="black" stroke-opacity="0.54" stroke-width="1.5" stroke-linecap="round" stroke-linejoin="round"/>
</svg>
